<svg xmlns="http://www.w3.org/2000/svg" width="208" height="46" viewBox="0 0 496 149" fill="none" style="transform: translate(0px, 0px);">
                    <path d="M29.3898 72.2019V137.232C33.5298 138.362 38.0598 138.922 42.7698 138.922C60.6798 138.922 72.3598 128.182 72.3598 105.752C72.3598 83.3219 60.8598 72.2019 35.0398 72.2019H29.3898ZM29.3898 66.9219C51.0698 66.9219 62.3798 59.9419 62.3798 38.6419C62.3798 19.7919 53.1398 11.3119 38.8198 11.3119C35.4298 11.3119 32.2198 11.8819 29.3998 12.8219V66.9219H29.3898ZM-0.390156 142.132C9.21984 139.492 9.21984 139.312 9.78984 114.612V30.1619C9.78984 21.3019 9.22985 15.6519 7.89985 13.2019C6.57985 10.5619 3.93984 8.86188 -0.200157 8.30188V6.42188C5.26984 6.61187 12.0498 6.80188 19.7798 6.80188H32.2198C37.4898 6.61188 40.6998 6.61188 41.6398 6.61188C69.3498 6.61188 83.1098 16.4119 83.1098 36.2019C83.1098 52.6019 74.0598 62.9719 56.1498 67.6819C80.8498 70.8819 93.6599 85.2119 93.6599 106.132C93.6599 116.872 90.0799 125.922 83.0999 133.272C76.1299 140.622 64.6298 144.202 48.9798 144.202C47.4798 144.202 43.3198 144.012 36.3498 143.822C29.3798 143.632 23.7198 143.632 19.3798 143.632C11.6498 143.632 5.05984 143.822 -0.410156 144.012V142.122L-0.390156 142.132Z" fill="#922a22" style="fill: rgb(255, 255, 255);"></path>
                    <path d="M137.38 144.01C126.26 143.45 114.58 143.45 103.45 144.01V142.12C106.65 141.56 108.73 140.24 109.86 138.35C110.99 136.47 111.56 131.94 111.56 124.97V20.55C111.56 10.56 110.99 8.49 105.72 6.98V5.09C114.39 4.9 122.31 3.2 129.28 0V124.97C129.28 131.94 129.85 136.47 130.98 138.35C132.11 140.24 134.18 141.55 137.39 142.12V144.01H137.38Z" fill="#922a22" style="fill: rgb(255, 255, 255);"></path>
                    <path d="M218.42 99.7219C218.42 71.8319 212.01 56.9319 192.97 56.9319C182.6 56.9319 175.44 61.4619 171.86 69.9419C168.66 78.2319 167.34 86.9019 167.34 99.5319C167.34 126.672 173.18 141.002 192.6 141.002C212.02 141.002 218.43 125.922 218.43 99.7219M225.96 131.952C217.1 140.432 205.98 144.772 192.6 144.772C179.22 144.772 168.47 140.622 159.61 132.332C150.75 124.042 146.42 113.102 146.42 99.7219C146.42 86.3419 150.94 75.0319 159.99 66.3619C169.22 57.5019 180.16 53.1719 192.98 53.1719C205.8 53.1719 216.73 57.5019 225.78 66.1719C234.83 74.8419 239.35 85.7819 239.35 99.1619C239.35 112.542 234.82 123.292 225.96 131.962" fill="#922a22" style="fill: rgb(255, 255, 255);"></path>
                    <path d="M320.01 99.7219C320.01 71.8319 313.59 56.9319 294.56 56.9319C284.19 56.9319 277.03 61.4619 273.44 69.9419C270.24 78.2319 268.92 86.9019 268.92 99.5319C268.92 126.672 274.76 141.002 294.18 141.002C313.6 141.002 320.01 125.922 320.01 99.7219ZM327.55 131.952C318.69 140.432 307.56 144.772 294.19 144.772C280.82 144.772 270.06 140.622 261.2 132.332C252.34 124.042 248.01 113.102 248.01 99.7219C248.01 86.3419 252.53 75.0319 261.58 66.3619C270.81 57.5019 281.75 53.1719 294.57 53.1719C307.39 53.1719 318.32 57.5019 327.36 66.1719C336.41 74.8419 340.94 85.7819 340.94 99.1619C340.94 112.542 336.41 123.292 327.55 131.962" fill="#922a22" style="fill: rgb(255, 255, 255);"></path>
                    <path d="M495.67 144.012C484.55 143.452 472.87 143.452 461.74 144.012V142.122C464.95 141.562 467.02 140.242 468.16 138.352C469.29 136.472 469.85 131.942 469.85 124.972V85.7619C469.85 66.1519 463.26 59.1819 451.75 59.1819C444.21 59.1819 436.48 62.2019 428.57 68.0419C430.45 72.3719 431.4 78.0319 431.4 84.8219V124.972C431.4 131.942 431.97 136.472 433.1 138.352C434.23 140.242 436.3 141.552 439.51 142.122V144.012C428.38 143.452 416.7 143.452 405.58 144.012V142.122C408.78 141.562 410.86 140.242 411.99 138.352C413.13 136.472 413.69 131.942 413.69 124.972V85.3919C413.69 65.7919 407.47 59.1919 396.16 59.1919C388.81 59.1919 382.02 61.8319 375.61 67.1119V124.982C375.61 131.952 376.18 136.482 377.31 138.362C378.44 140.252 380.51 141.562 383.72 142.132V144.022C372.59 143.462 360.91 143.462 349.79 144.022V142.132C352.99 141.572 355.07 140.252 356.2 138.362C357.33 136.482 357.9 131.952 357.9 124.982V73.7119C357.9 63.7219 357.33 61.6519 352.06 60.1419V58.2619C360.91 58.0719 368.83 56.3719 375.62 53.1719V62.4119C384.1 56.1919 393.34 53.1719 403.52 53.1719C414.64 53.1719 422.55 56.9419 427.08 64.6719C437.45 56.9419 448.19 53.1719 459.31 53.1719C478.16 53.1719 487.58 63.9219 487.58 85.4019V124.982C487.58 131.952 488.15 136.482 489.28 138.362C490.41 140.252 492.48 141.562 495.69 142.132V144.022L495.67 144.012Z" fill="#922a22" style="fill: rgb(255, 255, 255);"></path>
                </svg>