<svg id="Layer_1" xmlns="http://www.w3.org/2000/svg" viewBox="0 0 1267.96 272.78" class="w-24 xl:w-32"><defs><style>.dken-st0{fill:#00843d}</style></defs><path d="m235.47 174.8-20.89-1.58-6.4 52.49h.01c-2.79 22.14-4.42 28.11-10.23 41.55h30.23c-1.4-8.21-.93-27.86.93-43.54l6.35-48.92Zm98.74 1.21h-45.46l44.56 91.25h16.28l1.86-3.7v-52.27l-17.24-35.28z"></path><path d="M197.96 239.37s-16.75 10.21-33.97 9.96H62.54V145.49h107.11l5.43-20.42H62.54V21.49h96.02c8.73 0 16.99 2.49 23.36 4.98 1.52.64 3.14 1.39 4.99 2.24 1.01.47 2.1.96 3.27 1.49l-.24-26.89H14.88c6.89 16.66 6.87 27.58 6.85 39.41v185.7c.03 12.14.05 22.2-6.85 39.33h179.3l3.77-26.39v-1.99Z" style="fill:#c8102e"></path><path class="dken-st0" d="M463.79 3.31h-10.7L413.9 83.5h60.2L463.79 3.31z"></path><path d="M451.23 220.99c1.86 15.18 1.86 33.58-.47 46.52v.25h52.33c-5.81-13.43-7.91-19.9-10.7-42.04l-6.39-49.7h-40.48l5.71 44.98Zm356.91 9.95c-7.06 16.92-10.47 23.14-20.26 36.82h31.42l37.35-91.75h-26.03l-22.47 54.93Zm170.78 36.82h53.06c-14.12-14.93-18.67-21.64-28.46-43.29l-20.11-48.46h-42.27l37.78 91.75Z"></path><path class="dken-st0" d="m899.44 64.34 7.26 19.16h38.32L911.75 3.31h-10.47L868.47 83.5h23.86l7.11-19.16zm-264.45 0 7.26 19.16h38.47L647.54 3.31h-10.48L604.25 83.5h23.63l7.11-19.16z"></path><path d="M714.48 267.76h53.05c-13.89-14.93-18.67-21.64-28.46-43.29l-20.06-48.46H676.7l37.78 91.75Zm-170.55-36.82c-7.06 16.92-10.48 23.14-20.5 36.82h31.43l37.35-91.75h-25.8l-22.47 54.93h-.01Zm660.42 36.82h51.4c-3.31-3.44-54.93-56.23-89.66-91.75h-48.26c35.23 42.18 63.97 70.1 86.51 91.75h.01Zm-165.43-40.4v.9c.03 12.12.05 22.15-6.93 39.25h55.46c-6.68-16.89-7.14-27.1-7.17-38.86v-52.64h-41.36v51.35Z"></path><path class="dken-st0" d="M1072.67 23.81c73.22-2.9 80.67 34.13 81.33 51.08.1 2.8-.02 5.7-.34 8.6h57.71c.25-2.46.39-4.98.39-7.6 0-73-81.08-72.72-120.56-72.58h-59.22c6.98 16.63 6.96 27.52 6.93 39.33v40.83h33.75V23.81h.01Z"></path><path d="m368.69 176.01-17.23 35.28v52.27l43.95-87.55h-26.72z"></path><path d="M945.02 83.5H906.7l23.57 62.21h-61.03l23.08-62.21h-23.86l-37.85 92.51h26.03l2.05-5.03h80.38l2.07 5.03h42.27L945.02 83.5zm-264.3 0h-38.47l23.58 62.21H604.8l23.08-62.21h-23.63l-37.85 92.51h25.8l2.05-5.03h80.38l2.07 5.03h42.31L680.72 83.5zm530.66.01h-57.71c-1.69 15.36-9.66 31.29-27.72 38.23 0 0-.44.22-1.1.45-5.97 2.57-20 3.18-32.01 3.18-10.92 0-20.16-.51-20.16-.51V83.5h-33.75v92.51h41.36v-31.27c5.26.25 13.62 2.24 25.34 16.4 4.16 5.16 8.22 10.08 12.22 14.87h48.26L1134.8 144l10.76-.99c33.52-5.11 62.23-24.34 65.83-59.5ZM474.1 83.5h-60.2l-45.21 92.51h26.72l40-79.66 10.11 79.66H486L474.1 83.5zm-185.13 0h-63.26l-11.13 89.72 20.89 1.58 10.63-86.16 42.65 87.37h45.46L288.97 83.5z" style="fill:#fff"></path><path class="dken-st0" d="M225.71 83.5h63.26L249.76 3.31h-14.13l-9.92 80.19z"></path></svg>