<svg xmlns="http://www.w3.org/2000/svg" xmlns:xlink="http://www.w3.org/1999/xlink" viewBox="0 0 266.69 28.51"><defs><style>.cls-1{fill:none;}.cls-2{fill:#212621;}.cls-3{clip-path:url(#clip-path);}</style><clipPath id="clip-path" transform="translate(0 0)"><rect class="cls-1" width="266.69" height="28.5"/></clipPath></defs><title>Layer 1</title><g id="Layer_2" data-name="Layer 2"><g id="Layer_1-2" data-name="Layer 1"><polygon class="cls-2" points="102.93 0.2 102.93 12.62 83.01 12.62 83.01 0.2 79.27 0.2 79.27 28.3 83.01 28.3 83.01 15.89 102.93 15.89 102.93 28.3 106.67 28.3 106.67 0.2 102.93 0.2"/><g class="cls-3"><path class="cls-2" d="M194,.2l-8.88,18.44a59.18,59.18,0,0,0-2.54,6.16c-1.08-2.66-1.32-3.26-2.71-6.29L171.11.2h-5.5V28.31h3.75V10.79A61.43,61.43,0,0,0,169,3.66c.11.31.22.59.32.85a58.31,58.31,0,0,0,2.51,5.56l8.79,18.24h3.66l9.6-19.83A45.05,45.05,0,0,0,196,3.55a56.23,56.23,0,0,0-.36,8.59V28.31h3.74V.2Z" transform="translate(0 0)"/><path class="cls-2" d="M133.93.2,119.42,28.31h4.35l3.42-6.93h17.27l3.43,6.93h4.47L138,.2Zm-5.07,17.91,5.93-11.66c.24-.52.48-1,.68-1.51s.28-.8.4-1.15c.08.35.19.71.31,1.07s.45,1,.64,1.44l5.93,11.81Z" transform="translate(0 0)"/><path class="cls-2" d="M227.18.2,212.67,28.31H217l3.42-6.93h17.28l3.42,6.93h4.47L231.22.2Zm-5.06,17.91L228,6.45c.24-.52.48-1,.68-1.51s.28-.8.4-1.15c.08.35.2.71.32,1.07s.44,1,.64,1.44L236,18.11Z" transform="translate(0 0)"/><path class="cls-2" d="M55.28,12.75c7.68,1.34,11.55,3.6,11.55,7.88,0,4.79-5.25,7.88-12.1,7.88a24.05,24.05,0,0,1-14.4-4.44l2.41-2.3A19.53,19.53,0,0,0,54.88,25.7c4.63,0,7.68-1.94,7.68-4.76,0-2.61-1.72-4.07-9-5.3-7.93-1.39-11.9-3.44-11.9-8,0-4.43,5.1-7.6,11.65-7.6A21.86,21.86,0,0,1,65.79,3.41L63.53,5.82a18.48,18.48,0,0,0-10.27-3c-4.48,0-7.33,2-7.33,4.51s1.77,4.12,9.35,5.43" transform="translate(0 0)"/><path class="cls-2" d="M3.74.2H0V28.31H3.74V10.79a61.43,61.43,0,0,0-.32-7.13c.11.31.1.27.2.53A16.16,16.16,0,0,0,6.76,8.58L24.14,28.31h3.75V.2H24.14V17.72a66.12,66.12,0,0,0,.32,7.12c-.11-.3-.2-.58-.32-.84-.56-1.29-2.15-3.24-4.49-5.86Z" transform="translate(0 0)"/><polygon class="cls-2" points="256.71 19.15 262.61 25.52 262.61 25.52 263.9 25.52 263.9 17.04 262.61 17.04 262.61 23.4 256.71 17.04 255.43 17.04 255.43 25.52 256.71 25.52 256.71 19.15"/><path class="cls-2" d="M252.64,28.31h14.05V14.25H252.64ZM265.4,27H253.93V15.54H265.4Z" transform="translate(0 0)"/></g></g></g></svg>