<?xml version="1.0" encoding="UTF-8"?> <svg xmlns="http://www.w3.org/2000/svg" width="200" height="31" viewBox="0 0 200 31" fill="none"><path d="M36.203 22.9392L27.725 17.2279C29.8198 15.4422 31.1573 12.744 31.1573 9.72922C31.1573 4.56681 27.2367 0.331503 22.3038 0.0192865V0H0.299914C-0.0126942 -1.80264e-06 -0.116245 0.445071 0.160552 0.599732L7.27642 4.57763C10.3339 6.28689 13.7367 7.17993 17.1918 7.17993H21.7195C23.0294 7.17993 24.0948 8.32353 24.0948 9.72923C24.0948 11.1349 23.0294 12.2785 21.7195 12.2785C21.7195 12.2785 20.0361 12.2944 19.3412 12.0737C18.6463 11.8533 17.112 10.9977 17.112 10.9977C10.7761 7.25906 1.5234 14.1872 2.66832 23.286C2.6889 23.4491 2.81532 23.569 2.96196 23.569L9.78739 23.5685C9.96205 23.5685 10.1034 23.4016 10.087 23.206C9.8569 20.4362 11.8347 17.8501 14.3336 17.8847C16.1566 17.9031 19.8148 20.232 22.5903 21.9504C24.2349 22.9687 26.081 23.569 27.9586 23.569H36.0663C36.3772 23.569 36.479 23.1003 36.203 22.9392Z" fill="#0F0D0D"></path><path d="M66.8814 3.36719C64.6758 3.36719 62.9131 4.25728 61.7328 5.95321V4.18994C61.7328 4.05061 61.6189 3.93783 61.4785 3.93783H56.1469C56.0064 3.93783 55.8926 4.05061 55.8926 4.18994V29.3777C55.8926 29.517 56.0064 29.6298 56.1469 29.6298H61.7663C61.9068 29.6298 62.0208 29.517 62.0208 29.3777V20.7128C63.1937 22.1566 64.8249 22.8871 66.8814 22.8871C71.7499 22.8871 75.4212 18.6988 75.4212 13.1449C75.4212 7.47936 71.8297 3.36719 66.8814 3.36719ZM69.293 13.1093C69.293 15.6287 67.6941 17.3884 65.4049 17.3884C63.0145 17.3884 61.4087 15.683 61.4087 13.1449C61.4087 10.5854 63.0145 8.866 65.4049 8.866C67.7304 8.866 69.293 10.5712 69.293 13.1093Z" fill="#0F0D0D"></path><path d="M112.12 4.42302C111.742 4.28164 111.35 4.18089 110.954 4.12323C110.568 4.06807 110.107 4.04004 109.583 4.04004C108.154 4.04004 106.961 4.35792 106.037 4.98464C105.573 5.30057 105.157 5.62749 104.793 5.96294L104.697 4.85905C104.674 4.59314 104.445 4.38879 104.171 4.38879H99.5182C99.2266 4.38879 98.9902 4.61869 98.9902 4.90233V23.0551C98.9902 23.3388 99.2266 23.5687 99.5182 23.5687H104.41C104.701 23.5687 104.938 23.3388 104.938 23.0551V14.0755C104.938 12.7635 105.295 11.7891 106.03 11.0966C106.771 10.3994 107.724 10.0605 108.946 10.0605C108.951 10.0605 108.955 10.0605 108.96 10.0603C108.995 10.0594 109.03 10.0589 109.065 10.0589C109.956 10.0589 110.85 10.3503 111.442 10.5431C111.545 10.5768 111.638 10.6072 111.72 10.6325C111.772 10.6487 111.826 10.6565 111.88 10.6565C111.99 10.6565 112.099 10.6231 112.19 10.5587C112.325 10.4631 112.406 10.3106 112.408 10.1477L112.458 4.90729C112.46 4.69283 112.325 4.49983 112.12 4.42302Z" fill="#0F0D0D"></path><path d="M146.861 6.39558C145.552 4.83264 143.511 4.04004 140.795 4.04004C138.714 4.04004 137.018 4.30491 135.754 4.82716C134.496 5.34687 133.485 5.92422 132.75 6.54242C132.649 6.62725 132.627 6.77975 132.698 6.89303L134.894 10.3629C134.931 10.421 134.988 10.4611 135.053 10.4742C135.118 10.4883 135.184 10.4731 135.239 10.4335C135.766 10.0523 136.425 9.70387 137.197 9.39742C137.958 9.09442 138.919 8.94083 140.05 8.94083C140.872 8.94083 141.614 9.13528 142.255 9.51854C142.86 9.87991 143.153 10.4695 143.153 11.3214V11.4078C142.917 11.3779 142.589 11.3542 142.163 11.3363C141.519 11.3099 140.884 11.2966 140.274 11.2966C138.734 11.2966 137.326 11.5616 136.088 12.084C134.836 12.6118 133.829 13.4035 133.097 14.4377C132.36 15.4792 131.986 16.7663 131.986 18.2625C131.986 19.7896 132.331 21.0124 133.009 21.8975C133.681 22.7742 134.502 23.3926 135.448 23.7348C136.375 24.0713 137.272 24.2421 138.114 24.2421C140.238 24.2421 141.947 23.5877 143.204 22.2951L143.303 23.4522C143.315 23.5868 143.422 23.6901 143.55 23.6901H148.574C148.711 23.6901 148.821 23.5731 148.821 23.4285V12.6625C148.821 10.0585 148.162 7.94995 146.861 6.39558ZM143.153 15.4879V16.7634C143.153 17.7097 142.839 18.4148 142.193 18.9192C141.532 19.435 140.799 19.6966 140.013 19.6966C138.404 19.6966 137.655 19.0531 137.655 17.6709C137.655 16.9414 137.923 16.3929 138.477 15.9941C139.053 15.5791 140.07 15.3688 141.502 15.3688C141.938 15.3688 142.33 15.3883 142.667 15.4266C142.867 15.4494 143.03 15.4699 143.153 15.4879Z" fill="#0F0D0D"></path><path d="M169.535 5.36039C168.51 4.98476 167.319 4.66753 165.996 4.41764C164.668 4.16704 163.262 4.04004 161.817 4.04004C159.775 4.04004 157.964 4.44469 156.434 5.24288C154.897 6.04395 153.68 7.18554 152.817 8.63577C151.954 10.0847 151.516 11.7958 151.516 13.722C151.516 15.3685 151.837 16.8606 152.472 18.1568C153.111 19.4616 154.051 20.4938 155.266 21.2246C156.478 21.9531 157.956 22.3227 159.657 22.3227C161.355 22.3227 162.772 21.9219 163.879 21.1304V21.8515C163.879 23.0657 163.555 23.9834 162.915 24.579C162.27 25.1782 161.362 25.4821 160.216 25.4821C159.301 25.4821 158.454 25.3662 157.699 25.1382C156.939 24.9082 156.213 24.5845 155.541 24.1759C155.484 24.1412 155.415 24.131 155.35 24.148C155.286 24.1646 155.231 24.2069 155.198 24.2651L153.038 28.0689C152.974 28.1812 153.007 28.3238 153.114 28.3962C154.985 29.6612 157.487 30.3027 160.551 30.3027C163.354 30.3027 165.601 29.5862 167.229 28.1725C168.867 26.7496 169.697 24.5352 169.697 21.5904V5.59272C169.697 5.48901 169.633 5.39622 169.535 5.36039ZM163.916 9.27508V14.3557C163.916 15.421 163.643 16.2059 163.104 16.6889C162.559 17.1788 161.762 17.4272 160.737 17.4272C159.663 17.4272 158.86 17.0849 158.284 16.3806C157.704 15.6723 157.41 14.715 157.41 13.5357C157.41 12.2818 157.773 11.1921 158.491 10.2974C159.195 9.41838 160.289 8.97252 161.742 8.97252C162.293 8.97252 162.743 9.00262 163.077 9.06174C163.356 9.11208 163.637 9.18354 163.916 9.27508Z" fill="#0F0D0D"></path><path d="M86.869 4.04004C81.6706 4.04004 77.4414 8.42033 77.4414 13.8044C77.4414 19.1885 81.6706 23.5687 86.869 23.5687C92.0674 23.5687 96.2966 19.1884 96.2966 13.8044C96.2966 8.42051 92.0674 4.04004 86.869 4.04004ZM91.2467 13.8044C91.2467 16.3046 89.2829 18.3384 86.869 18.3384C84.4551 18.3384 82.4913 16.3046 82.4913 13.8044C82.4913 11.3041 84.4551 9.26995 86.869 9.26995C89.2829 9.26995 91.2467 11.3041 91.2467 13.8044Z" fill="#0F0D0D"></path><path d="M129.885 21.347L127.719 17.9304C127.645 17.8135 127.529 17.733 127.396 17.7075C127.366 17.7015 127.336 17.6986 127.305 17.6986C127.203 17.6986 127.102 17.7317 127.018 17.7945C126.695 18.0339 126.344 18.2466 125.975 18.4264C125.645 18.5877 125.238 18.6693 124.766 18.6693C124.207 18.6693 123.819 18.5035 123.579 18.1626C123.308 17.7761 123.171 17.1924 123.171 16.4279V9.75955H127.193C127.467 9.75955 127.689 9.52882 127.689 9.24416V4.8567C127.689 4.57205 127.467 4.3415 127.193 4.3415H123.171V0.515212C123.171 0.230734 122.949 0 122.675 0H117.298C117.024 0 116.803 0.230732 116.803 0.515212V4.3415H114.974C114.7 4.3415 114.479 4.57205 114.479 4.8567V9.24416C114.479 9.52882 114.7 9.75955 114.974 9.75955H116.803V16.117C116.803 17.6736 117.02 19.067 117.45 20.2585C117.897 21.4985 118.66 22.4851 119.719 23.1907C120.767 23.8885 122.188 24.2424 123.945 24.2424C126.068 24.2424 128.032 23.4987 129.782 22.0316C129.981 21.8651 130.025 21.5687 129.885 21.347Z" fill="#0F0D0D"></path><path d="M200.001 19.5287C200.001 21.76 198.192 23.5691 195.961 23.5691C193.729 23.5691 191.92 21.76 191.92 19.5287C191.92 17.2976 193.729 15.4883 195.961 15.4883C198.192 15.4883 200.001 17.2976 200.001 19.5287Z" fill="#FFC226"></path><path d="M53.1974 15.3898V14.4799C53.1974 12.4604 52.8575 10.6483 52.1874 9.09424C51.5118 7.52933 50.5028 6.28289 49.1884 5.38903C47.8716 4.49392 46.2245 4.04004 44.2932 4.04004C42.3635 4.04004 40.6807 4.49283 39.2914 5.38579C37.9038 6.27693 36.8317 7.47625 36.1054 8.95036C35.3823 10.4187 35.0156 12.0239 35.0156 13.7215C35.0156 14.2837 35.0551 14.856 35.1329 15.4231C35.1336 15.4283 35.1345 15.4335 35.1355 15.4388C35.3077 16.604 35.6695 17.7027 36.2112 18.7044C37.0056 20.1758 38.1203 21.3668 39.5241 22.2439C40.9305 23.1229 42.5869 23.5687 44.4471 23.5687C46.3069 23.5687 47.9633 23.1229 49.3701 22.2439C50.7743 21.3659 51.8831 20.1747 52.6656 18.7029C52.8602 18.3372 53.034 17.9521 53.1818 17.5583C53.2095 17.4845 53.1998 17.4014 53.1556 17.3364C53.1113 17.2712 53.0384 17.2322 52.9605 17.2322H47.1705C47.1067 17.2322 47.0455 17.2584 47.001 17.3046C46.8441 17.4677 46.6963 17.6016 46.549 17.7141C45.9975 18.135 45.2903 18.3483 44.4471 18.3483C43.6262 18.3483 42.9176 18.1341 42.3415 17.7114C41.7582 17.2837 41.3119 16.7174 41.015 16.0281C40.9616 15.9047 40.9125 15.7746 40.8648 15.6303H52.9605C53.0912 15.6303 53.1974 15.5225 53.1974 15.3898ZM47.632 11.6612H40.7318C40.77 11.275 40.8999 10.88 41.119 10.4837C41.3841 10.004 41.784 9.59308 42.3079 9.26197C42.8278 8.93392 43.4831 8.76765 44.2559 8.76765C45.0266 8.76765 45.6683 8.93321 46.1626 9.25944C46.6603 9.58874 47.0353 9.99803 47.2767 10.4757C47.4779 10.8745 47.5971 11.2723 47.632 11.6612Z" fill="#0F0D0D"></path><path d="M190.572 15.3898V14.4799C190.572 12.4604 190.233 10.6483 189.562 9.09424C188.887 7.52933 187.878 6.28289 186.563 5.38903C185.247 4.49392 183.6 4.04004 181.668 4.04004C179.739 4.04004 178.056 4.49283 176.666 5.38579C175.279 6.27693 174.207 7.47625 173.48 8.95036C172.757 10.4187 172.391 12.0239 172.391 13.7215C172.391 14.2837 172.43 14.856 172.508 15.4231C172.509 15.4283 172.509 15.4335 172.511 15.4388C172.683 16.604 173.045 17.7027 173.586 18.7044C174.381 20.1758 175.495 21.3668 176.899 22.2439C178.306 23.1229 179.962 23.5687 181.822 23.5687C183.682 23.5687 185.338 23.1229 186.745 22.2439C188.149 21.3659 189.258 20.1747 190.041 18.7029C190.235 18.3372 190.409 17.9521 190.557 17.5583C190.585 17.4845 190.575 17.4014 190.531 17.3364C190.486 17.2712 190.413 17.2322 190.335 17.2322H184.546C184.482 17.2322 184.42 17.2584 184.376 17.3046C184.219 17.4677 184.071 17.6016 183.924 17.7141C183.373 18.135 182.665 18.3483 181.822 18.3483C181.001 18.3483 180.293 18.1341 179.716 17.7114C179.133 17.2837 178.687 16.7174 178.39 16.0281C178.337 15.9047 178.287 15.7746 178.24 15.6303H190.335C190.466 15.6303 190.572 15.5225 190.572 15.3898ZM185.007 11.6612H178.107C178.145 11.275 178.275 10.88 178.494 10.4837C178.759 10.004 179.159 9.59308 179.683 9.26197C180.203 8.93392 180.858 8.76765 181.631 8.76765C182.402 8.76765 183.043 8.93321 183.538 9.25944C184.035 9.58874 184.41 9.99803 184.652 10.4757C184.853 10.8745 184.972 11.2723 185.007 11.6612Z" fill="#0F0D0D"></path></svg> 